<?xml version="1.0" standalone="no"?>
<!DOCTYPE svg PUBLIC "-//W3C//DTD SVG 20010904//EN"
 "http://www.w3.org/TR/2001/REC-SVG-20010904/DTD/svg10.dtd">
<svg version="1.0" xmlns="http://www.w3.org/2000/svg"
 width="600.000000pt" height="600.000000pt" viewBox="0 0 600.000000 600.000000"
 preserveAspectRatio="xMidYMid meet">
<metadata>
Created by potrace 1.11, written by Peter Selinger 2001-2013
</metadata>
<g transform="translate(0.000000,600.000000) scale(0.100000,-0.100000)"
fill="#000000" stroke="none">
<path d="M2770 5879 c-190 -20 -204 -23 -364 -55 -342 -69 -653 -196 -961
-393 -620 -396 -1064 -1013 -1245 -1731 -16 -63 -31 -135 -35 -160 -3 -25 -8
-52 -10 -60 -2 -8 -7 -35 -10 -60 -3 -25 -8 -56 -10 -70 -22 -129 -23 -554 -1
-666 2 -11 7 -46 10 -77 19 -177 91 -452 172 -658 335 -853 1072 -1507 1954
-1733 284 -73 436 -91 755 -91 183 1 374 17 485 40 8 2 58 13 110 24 674 142
1294 549 1712 1121 186 255 340 565 428 860 16 57 32 113 34 124 3 12 11 50
20 86 27 113 50 272 61 415 7 88 7 339 1 395 -2 19 -7 66 -11 104 -8 90 -14
137 -20 156 -2 8 -7 35 -10 60 -21 151 -103 429 -186 630 -280 673 -877 1260
-1558 1531 -284 114 -483 163 -821 204 -78 10 -422 12 -500 4z m483 -60 c281
-28 611 -110 830 -206 l37 -17 1 -105 c0 -58 2 -149 4 -201 1 -52 6 -225 10
-384 l7 -288 -29 20 c-15 11 -84 64 -153 116 -69 53 -186 142 -260 198 -217
165 -794 606 -928 708 -133 103 -137 106 -166 115 -13 4 -16 9 -9 16 12 12 32
15 148 25 44 3 81 8 83 9 7 7 351 2 425 -6z m-722 -146 c0 -65 2 -154 4 -198
1 -44 6 -213 10 -375 4 -162 8 -347 10 -410 2 -63 6 -236 9 -385 4 -148 9
-335 11 -415 2 -80 7 -255 9 -390 l6 -245 -39 130 c-21 72 -50 168 -64 215
-36 116 -574 1949 -582 1981 -6 25 -3 27 88 62 94 36 302 102 355 112 15 3 56
12 92 19 36 8 71 14 78 15 9 1 12 -29 13 -116z m801 -518 c375 -286 710 -540
743 -564 33 -25 62 -46 65 -48 2 -2 5 -41 6 -86 1 -45 5 -203 9 -352 3 -148 8
-328 10 -398 2 -97 1 -126 -8 -119 -91 68 -553 422 -617 471 -47 37 -112 86
-145 111 -33 25 -62 47 -65 50 -3 4 -111 87 -240 185 -129 98 -237 181 -240
184 -3 4 -56 44 -117 91 l-113 85 -1 70 c0 38 -2 115 -4 170 -1 55 -6 237 -10
404 l-7 304 25 -19 c14 -10 333 -253 709 -539z m-1397 90 c53 -181 103 -352
112 -380 8 -27 18 -63 23 -80 4 -16 96 -329 204 -694 108 -365 195 -665 193
-667 -1 -1 -58 106 -125 239 -181 358 -500 985 -697 1374 l-174 342 47 29 c26
16 64 39 84 51 48 29 231 121 234 118 1 -1 46 -150 99 -332z m2352 273 c217
-114 438 -265 593 -405 13 -12 -31 -13 -280 -7 -355 7 -398 9 -404 15 -6 5
-18 449 -12 449 2 0 49 -23 103 -52z m-2715 -488 c80 -157 239 -469 353 -695
114 -225 255 -502 313 -615 57 -113 100 -200 94 -195 -5 6 -197 262 -427 570
-538 721 -529 709 -546 712 -7 2 -19 0 -25 -5 -5 -4 -75 -92 -154 -197 -405
-535 -772 -1015 -777 -1015 -3 0 1 10 9 23 13 19 561 945 906 1530 58 97 106
176 107 175 1 -2 68 -131 147 -288z m-260 223 c-11 -16 -72 -118 -137 -228
-65 -110 -159 -270 -210 -355 -50 -85 -138 -234 -195 -330 -57 -96 -123 -208
-148 -249 -24 -41 -52 -88 -62 -105 -9 -17 -53 -92 -97 -166 -44 -74 -116
-196 -160 -270 -44 -74 -85 -144 -92 -155 -10 -17 -11 -12 -6 30 20 164 88
417 160 603 140 357 366 703 632 967 104 104 314 284 331 285 2 0 -5 -12 -16
-27z m3403 -208 c72 -2 155 -4 186 -4 l56 -1 81 -82 c45 -46 115 -126 157
-178 83 -103 207 -281 201 -287 -6 -6 -1177 -5 -1183 1 -3 3 -7 58 -9 123 -2
65 -6 191 -8 280 l-5 162 197 -5 c108 -3 256 -7 327 -9z m-2869 -990 c542
-725 534 -714 514 -699 -63 47 -786 610 -790 614 -3 3 -45 35 -93 72 -68 51
-93 65 -108 60 -11 -4 -218 -161 -461 -347 -243 -187 -492 -378 -552 -424 -61
-46 -118 -89 -126 -95 -8 -6 28 45 81 114 93 122 394 517 620 815 63 83 182
239 264 348 83 108 153 196 157 194 4 -1 226 -294 494 -652z m1129 354 c154
-118 366 -281 472 -362 l192 -147 -162 -213 c-90 -116 -306 -400 -481 -629
-175 -230 -319 -418 -320 -418 -3 0 -4 55 -11 400 -1 52 -5 219 -9 370 -11
392 -26 992 -30 1187 l-2 81 36 -27 c19 -15 161 -124 315 -242z m2487 -23 c48
-77 174 -355 198 -436 l7 -25 -723 0 -724 0 -1 55 c0 30 -3 142 -5 248 l-6
193 617 -2 617 -2 20 -31z m-3602 -725 c675 -526 683 -532 674 -541 -5 -5
-457 -11 -1004 -15 -547 -4 -1075 -8 -1172 -9 -133 -1 -178 2 -178 11 0 6 201
166 448 356 565 435 550 423 657 506 51 39 94 66 100 62 5 -5 219 -171 475
-370z m3839 172 c47 -170 64 -237 75 -298 18 -98 23 -137 32 -236 l7 -76 -787
0 -786 0 -1 21 c-1 39 -9 300 -13 459 l-4 157 66 0 c37 0 363 1 725 1 404 0
657 4 657 10 0 26 17 3 29 -38z m-1861 -85 c81 -62 149 -115 152 -118 17 -19
158 -120 168 -120 8 0 12 -17 12 -46 0 -40 -6 -54 -45 -103 -25 -31 -145 -184
-267 -341 -122 -157 -308 -395 -413 -530 -158 -202 -721 -925 -732 -939 -11
-15 -13 37 -29 714 l-6 270 347 455 c190 250 354 465 363 477 9 12 80 105 157
207 77 102 141 185 143 186 2 0 70 -50 150 -112z m339 -480 c0 -52 11 -515 18
-793 2 -77 7 -241 10 -365 3 -124 7 -301 10 -395 3 -93 7 -273 10 -399 l6
-229 -88 79 c-48 43 -90 81 -93 84 -3 3 -142 129 -310 280 -168 150 -307 276
-310 279 -3 3 -45 42 -95 86 -159 141 -160 142 -148 157 5 7 75 96 154 198 79
102 146 187 149 190 3 3 26 32 51 65 64 84 630 811 635 814 0 1 0 -23 1 -51z
m1644 -150 c5 -152 -3 -364 -16 -453 -2 -11 -6 -41 -10 -66 l-6 -46 -766 1
-767 1 -2 55 c-1 30 -5 166 -8 303 l-6 247 790 0 790 0 1 -42z m-3231 -94 c5
-11 11 -153 15 -315 3 -162 8 -350 10 -419 2 -69 7 -235 10 -370 3 -135 8
-321 10 -415 6 -218 13 -497 20 -800 4 -132 8 -300 10 -372 2 -87 -1 -133 -7
-133 -38 0 -235 37 -349 66 -796 198 -1473 745 -1839 1484 -74 149 -170 394
-185 471 -3 12 -11 45 -19 73 -8 28 -18 67 -21 86 -3 19 -10 51 -15 70 -23 90
-46 297 -55 488 l-4 92 52 1 c29 0 383 3 787 5 404 3 735 6 736 7 1 1 190 2
420 2 413 0 417 0 424 -21z m3184 -556 c-2 -13 -6 -35 -9 -49 -20 -111 -83
-312 -151 -484 l-35 -90 -651 2 c-357 1 -651 3 -653 5 -2 2 -6 146 -10 321
l-7 317 760 0 761 0 -5 -22z m-2579 -546 c28 -26 113 -104 190 -172 77 -69
158 -141 180 -161 22 -20 117 -105 210 -189 94 -84 210 -190 260 -234 120
-109 189 -170 194 -173 3 -2 7 -110 14 -400 2 -62 1 -117 -2 -122 -10 -16
-309 -141 -335 -141 -6 0 -54 41 -106 91 -219 209 -387 369 -420 399 -19 18
-78 73 -130 124 -166 159 -433 412 -484 459 -45 41 -48 46 -35 64 70 99 394
503 403 503 6 0 34 -22 61 -48z m2345 -145 c0 -13 -61 -130 -123 -232 -60
-101 -179 -268 -239 -338 l-33 -38 -424 0 c-233 0 -425 2 -427 4 -2 2 -6 118
-10 258 -3 140 -7 274 -8 299 -2 25 1 47 5 50 12 8 1259 6 1259 -3z m-2615
-610 c55 -52 118 -112 140 -132 22 -21 121 -115 219 -209 221 -210 220 -209
400 -380 81 -76 145 -141 143 -143 -5 -4 -143 -43 -177 -49 -14 -3 -41 -9 -60
-14 -19 -4 -69 -14 -110 -20 -41 -6 -86 -13 -100 -16 -14 -2 -59 -6 -100 -10
-41 -3 -86 -8 -100 -10 -65 -11 -426 -1 -439 12 -3 3 -6 37 -7 77 -5 219 -17
656 -19 742 -3 97 -7 330 -6 350 1 5 27 -16 59 -46 31 -31 102 -99 157 -152z
m2133 -96 c-81 -89 -238 -231 -353 -318 -137 -104 -394 -263 -396 -246 -1 10
-6 186 -13 419 l-5 171 395 0 394 0 -22 -26z"/>
</g>
</svg>
